<?xml version="1.0" encoding="UTF-8" standalone="no"?>
<!DOCTYPE svg PUBLIC "-//W3C//DTD SVG 1.1//EN"
 "http://www.w3.org/Graphics/SVG/1.1/DTD/svg11.dtd">
<!-- Generated by graphviz version 2.40.1 (20161225.0304)
 -->
<!-- Title: G Pages: 1 -->
<svg width="758pt" height="188pt"
 viewBox="0.00 0.00 758.43 188.00" xmlns="http://www.w3.org/2000/svg" xmlns:xlink="http://www.w3.org/1999/xlink">
<g id="graph0" class="graph" transform="scale(1 1) rotate(0) translate(4 184)">
<title>G</title>
<polygon fill="#ffffff" stroke="transparent" points="-4,4 -4,-184 754.4302,-184 754.4302,4 -4,4"/>
<!-- all -->
<g id="node1" class="node">
<title>all</title>
<ellipse fill="none" stroke="#000000" cx="312.4594" cy="-162" rx="27" ry="18"/>
<text text-anchor="middle" x="312.4594" y="-157.8" font-family="Times,serif" font-size="14.00" fill="#000000">all</text>
</g>
<!-- $(DIR)/make.dot -->
<g id="node2" class="node">
<title>$(DIR)/make.dot</title>
<ellipse fill="none" stroke="#000000" cx="92.4594" cy="-90" rx="77.0476" ry="18"/>
<text text-anchor="middle" x="92.4594" y="-85.8" font-family="Times,serif" font-size="14.00" fill="#000000">$(DIR)/make.dot</text>
</g>
<!-- $(DIR)/make.dot&#45;&gt;all -->
<g id="edge1" class="edge">
<title>$(DIR)/make.dot&#45;&gt;all</title>
<path fill="none" stroke="#000000" d="M137.5106,-104.744C179.2848,-118.4156 240.5294,-138.4593 278.3734,-150.8446"/>
<polygon fill="#000000" stroke="#000000" points="277.335,-154.1874 287.9277,-153.9714 279.5123,-147.5346 277.335,-154.1874"/>
</g>
<!-- $(DOCS)/j&#45;migration.html -->
<g id="node3" class="node">
<title>$(DOCS)/j&#45;migration.html</title>
<ellipse fill="none" stroke="#000000" cx="554.4594" cy="-90" rx="114.1006" ry="18"/>
<text text-anchor="middle" x="554.4594" y="-85.8" font-family="Times,serif" font-size="14.00" fill="#000000">$(DOCS)/j&#45;migration.html</text>
</g>
<!-- $(DOCS)/j&#45;migration.html&#45;&gt;all -->
<g id="edge2" class="edge">
<title>$(DOCS)/j&#45;migration.html&#45;&gt;all</title>
<path fill="none" stroke="#000000" d="M500.7518,-105.9791C453.7685,-119.9576 386.9379,-139.8411 346.8224,-151.7763"/>
<polygon fill="#000000" stroke="#000000" points="345.8141,-148.4246 337.2274,-154.631 347.8103,-155.1339 345.8141,-148.4246"/>
</g>
<!-- $(DOCS)/j&#45;migration.pdf -->
<g id="node4" class="node">
<title>$(DOCS)/j&#45;migration.pdf</title>
<ellipse fill="none" stroke="#000000" cx="312.4594" cy="-90" rx="109.4279" ry="18"/>
<text text-anchor="middle" x="312.4594" y="-85.8" font-family="Times,serif" font-size="14.00" fill="#000000">$(DOCS)/j&#45;migration.pdf</text>
</g>
<!-- $(DOCS)/j&#45;migration.pdf&#45;&gt;all -->
<g id="edge3" class="edge">
<title>$(DOCS)/j&#45;migration.pdf&#45;&gt;all</title>
<path fill="none" stroke="#000000" d="M312.4594,-108.1686C312.4594,-115.869 312.4594,-125.0257 312.4594,-133.5834"/>
<polygon fill="#000000" stroke="#000000" points="308.9595,-133.5867 312.4594,-143.5867 315.9595,-133.5868 308.9595,-133.5867"/>
</g>
<!-- $(DIR)/Makefile -->
<g id="node5" class="node">
<title>$(DIR)/Makefile</title>
<ellipse fill="none" stroke="#000000" cx="76.4594" cy="-18" rx="76.4188" ry="18"/>
<text text-anchor="middle" x="76.4594" y="-13.8" font-family="Times,serif" font-size="14.00" fill="#000000">$(DIR)/Makefile</text>
</g>
<!-- $(DIR)/Makefile&#45;&gt;$(DIR)/make.dot -->
<g id="edge4" class="edge">
<title>$(DIR)/Makefile&#45;&gt;$(DIR)/make.dot</title>
<path fill="none" stroke="#000000" d="M80.4969,-36.1686C82.2081,-43.869 84.2429,-53.0257 86.1446,-61.5834"/>
<polygon fill="#000000" stroke="#000000" points="82.7815,-62.5841 88.3676,-71.5867 89.6148,-61.0656 82.7815,-62.5841"/>
</g>
<!-- $(JOURNALS)/j&#45;migration.Rmd -->
<g id="node6" class="node">
<title>$(JOURNALS)/j&#45;migration.Rmd</title>
<ellipse fill="none" stroke="#000000" cx="611.4594" cy="-18" rx="138.9415" ry="18"/>
<text text-anchor="middle" x="611.4594" y="-13.8" font-family="Times,serif" font-size="14.00" fill="#000000">$(JOURNALS)/j&#45;migration.Rmd</text>
</g>
<!-- $(JOURNALS)/j&#45;migration.Rmd&#45;&gt;$(DOCS)/j&#45;migration.html -->
<g id="edge5" class="edge">
<title>$(JOURNALS)/j&#45;migration.Rmd&#45;&gt;$(DOCS)/j&#45;migration.html</title>
<path fill="none" stroke="#000000" d="M597.0759,-36.1686C590.4098,-44.589 582.3653,-54.7505 575.0695,-63.9662"/>
<polygon fill="#000000" stroke="#000000" points="572.1038,-62.0736 568.6409,-72.0866 577.5921,-66.4186 572.1038,-62.0736"/>
</g>
<!-- $(JOURNALS)/j&#45;migration.Rmd&#45;&gt;$(DOCS)/j&#45;migration.pdf -->
<g id="edge7" class="edge">
<title>$(JOURNALS)/j&#45;migration.Rmd&#45;&gt;$(DOCS)/j&#45;migration.pdf</title>
<path fill="none" stroke="#000000" d="M545.4724,-33.8898C497.6873,-45.3966 433.1419,-60.9393 384.1009,-72.7485"/>
<polygon fill="#000000" stroke="#000000" points="383.099,-69.3897 374.1964,-75.1336 384.7379,-76.1951 383.099,-69.3897"/>
</g>
<!-- $(JOURNALS)/j&#45;appendix1.Rmd -->
<g id="node7" class="node">
<title>$(JOURNALS)/j&#45;appendix1.Rmd</title>
<ellipse fill="none" stroke="#000000" cx="312.4594" cy="-18" rx="141.7974" ry="18"/>
<text text-anchor="middle" x="312.4594" y="-13.8" font-family="Times,serif" font-size="14.00" fill="#000000">$(JOURNALS)/j&#45;appendix1.Rmd</text>
</g>
<!-- $(JOURNALS)/j&#45;appendix1.Rmd&#45;&gt;$(DOCS)/j&#45;migration.html -->
<g id="edge6" class="edge">
<title>$(JOURNALS)/j&#45;appendix1.Rmd&#45;&gt;$(DOCS)/j&#45;migration.html</title>
<path fill="none" stroke="#000000" d="M368.283,-34.6087C404.8018,-45.4738 452.6105,-59.6978 490.6362,-71.0113"/>
<polygon fill="#000000" stroke="#000000" points="489.9981,-74.473 500.5809,-73.97 491.9943,-67.7636 489.9981,-74.473"/>
</g>
<!-- $(JOURNALS)/j&#45;appendix1.Rmd&#45;&gt;$(DOCS)/j&#45;migration.pdf -->
<g id="edge8" class="edge">
<title>$(JOURNALS)/j&#45;appendix1.Rmd&#45;&gt;$(DOCS)/j&#45;migration.pdf</title>
<path fill="none" stroke="#000000" d="M312.4594,-36.1686C312.4594,-43.869 312.4594,-53.0257 312.4594,-61.5834"/>
<polygon fill="#000000" stroke="#000000" points="308.9595,-61.5867 312.4594,-71.5867 315.9595,-61.5868 308.9595,-61.5867"/>
</g>
</g>
</svg>

